<svg width="1403" height="1851" viewBox="0 0 1403 1851" fill="none" xmlns="http://www.w3.org/2000/svg">
<rect opacity="0.42" x="37.7891" y="12" width="1319.42" height="1838.66" rx="37" fill="url(#paint0_linear_2070_2103)"/>
<g opacity="0.58" filter="url(#filter0_f_2070_2103)">
<ellipse cx="413.353" cy="54.5412" rx="413.353" ry="54.5412" transform="matrix(0.444991 -0.895535 0.341147 0.94001 647.348 752.345)" fill="url(#paint1_linear_2070_2103)"/>
<path d="M831.457 382.641C882.243 280.434 930.3 193.65 966.94 135.961C985.262 107.114 1000.72 85.5583 1012.23 72.9846C1017.99 66.6957 1022.74 62.6715 1026.37 61.0941C1030.01 59.5089 1032.42 60.4311 1033.61 63.7156C1034.8 67.0003 1034.81 72.7446 1033.58 80.9701C1032.35 89.1551 1029.93 99.5884 1026.39 112.001C1019.32 136.819 1007.87 169.414 992.916 207.537C963.008 283.774 919.116 382.034 868.329 484.241C817.542 586.448 769.486 673.234 732.846 730.923C714.524 759.77 699.067 781.326 687.555 793.9C681.797 800.189 677.043 804.212 673.418 805.789C669.776 807.374 667.368 806.452 666.176 803.167C664.984 799.882 664.972 794.138 666.205 785.913C667.431 777.728 669.86 767.296 673.395 754.883C680.463 730.065 691.914 697.469 706.87 659.347C736.778 583.109 780.67 484.848 831.457 382.641Z" stroke="black" stroke-width="0.998262"/>
</g>
<g opacity="0.58" filter="url(#filter1_f_2070_2103)">
<ellipse cx="335.198" cy="38.191" rx="335.198" ry="38.191" transform="matrix(0.376933 -0.926241 0.404794 0.914408 1072.49 874.796)" fill="url(#paint2_linear_2070_2103)"/>
<path d="M1199.04 564.778C1233.93 479.055 1267.24 405.363 1292.89 355.517C1305.71 330.592 1316.62 311.644 1324.85 300.136C1328.96 294.379 1332.39 290.503 1335.05 288.663C1336.38 287.743 1337.5 287.342 1338.41 287.45C1339.31 287.559 1339.99 288.171 1340.46 289.232C1340.93 290.292 1341.22 291.856 1341.3 293.984C1341.38 296.118 1341.26 298.775 1340.93 301.941C1340.26 308.274 1338.76 316.513 1336.49 326.441C1331.96 346.288 1324.38 372.755 1314.35 403.998C1294.29 466.478 1264.44 547.986 1229.56 633.709C1194.67 719.432 1161.36 793.125 1135.71 842.97C1122.88 867.895 1111.98 886.843 1103.75 898.352C1099.64 904.108 1096.21 907.984 1093.55 909.825C1092.22 910.745 1091.1 911.145 1090.19 911.036C1089.28 910.928 1088.61 910.316 1088.14 909.256C1087.67 908.195 1087.38 906.631 1087.3 904.502C1087.21 902.368 1087.34 899.713 1087.67 896.546C1088.34 890.213 1089.84 881.974 1092.11 872.046C1096.64 852.199 1104.22 825.733 1114.25 794.49C1134.31 732.01 1164.16 650.501 1199.04 564.778Z" stroke="black" stroke-width="0.998262"/>
</g>
<g opacity="0.58" filter="url(#filter2_f_2070_2103)">
<ellipse cx="515.044" cy="73.7193" rx="515.044" ry="73.7193" transform="matrix(0.474699 -0.880148 0.317517 0.948253 400.922 1711.19)" fill="url(#paint3_radial_2070_2103)"/>
<path d="M645.571 1258.35C713.078 1133.18 776.809 1027.7 825.273 958.338C849.507 923.655 869.913 898.019 885.061 883.467C892.636 876.19 898.879 871.701 903.62 870.226C908.374 868.746 911.538 870.318 913.074 874.905C914.609 879.492 914.518 887.097 912.795 897.626C911.076 908.128 907.762 921.362 902.983 936.991C893.427 968.241 878.061 1008.93 858.062 1056.26C818.067 1150.91 759.575 1272.05 692.068 1397.21C624.562 1522.38 560.831 1627.86 512.367 1697.22C488.133 1731.9 467.727 1757.54 452.579 1772.09C445.004 1779.37 438.761 1783.86 434.019 1785.33C429.266 1786.81 426.102 1785.24 424.566 1780.66C423.03 1776.07 423.121 1768.46 424.845 1757.93C426.563 1747.43 429.878 1734.2 434.657 1718.57C444.213 1687.32 459.579 1646.63 479.578 1599.3C519.573 1504.64 578.064 1383.51 645.571 1258.35Z" stroke="black" stroke-width="0.998262"/>
</g>
<g opacity="0.58" filter="url(#filter3_f_2070_2103)">
<ellipse cx="515.044" cy="73.7193" rx="515.044" ry="73.7193" transform="matrix(0.474699 -0.880148 0.317517 0.948253 37.7891 1119.68)" fill="url(#paint4_radial_2070_2103)"/>
<path d="M282.438 666.843C349.945 541.677 413.676 436.193 462.14 366.832C486.374 332.148 506.781 306.512 521.928 291.961C529.503 284.683 535.747 280.195 540.488 278.719C545.241 277.24 548.405 278.811 549.941 283.398C551.477 287.985 551.386 295.591 549.662 306.12C547.944 316.621 544.629 329.855 539.85 345.484C530.294 376.735 514.928 417.424 494.929 464.755C454.934 559.408 396.442 680.54 328.936 805.705C261.429 930.87 197.698 1036.35 149.234 1105.71C125 1140.4 104.594 1166.03 89.4465 1180.59C81.8709 1187.86 75.6278 1192.35 70.8866 1193.83C66.1331 1195.31 62.9692 1193.74 61.4332 1189.15C59.8973 1184.56 59.9884 1176.96 61.7118 1166.43C63.4306 1155.93 66.7453 1142.69 71.5244 1127.06C81.0802 1095.81 96.4458 1055.12 116.445 1007.79C156.44 913.138 214.932 792.008 282.438 666.843Z" stroke="black" stroke-width="0.998262"/>
</g>
<g opacity="0.58" filter="url(#filter4_f_2070_2103)">
<ellipse cx="335.198" cy="38.191" rx="335.198" ry="38.191" transform="matrix(0.376933 -0.926241 0.404794 0.914408 1073.6 1303.13)" fill="url(#paint5_linear_2070_2103)"/>
<path d="M1200.15 993.11C1235.04 907.387 1268.34 833.695 1294 783.85C1306.82 758.924 1317.73 739.977 1325.95 728.468C1330.07 722.712 1333.5 718.835 1336.16 716.995C1337.49 716.075 1338.61 715.674 1339.52 715.783C1340.42 715.892 1341.1 716.504 1341.57 717.564C1342.04 718.625 1342.32 720.188 1342.41 722.317C1342.49 724.451 1342.37 727.107 1342.04 730.274C1341.37 736.607 1339.87 744.846 1337.6 754.774C1333.07 774.621 1325.49 801.087 1315.46 832.33C1295.4 894.81 1265.55 976.318 1230.67 1062.04C1195.78 1147.76 1162.47 1221.46 1136.82 1271.3C1123.99 1296.23 1113.09 1315.18 1104.86 1326.68C1100.75 1332.44 1097.32 1336.32 1094.66 1338.16C1093.33 1339.08 1092.21 1339.48 1091.3 1339.37C1090.39 1339.26 1089.72 1338.65 1089.25 1337.59C1088.78 1336.53 1088.49 1334.96 1088.41 1332.83C1088.32 1330.7 1088.45 1328.05 1088.78 1324.88C1089.45 1318.55 1090.95 1310.31 1093.22 1300.38C1097.75 1280.53 1105.33 1254.06 1115.36 1222.82C1135.42 1160.34 1165.27 1078.83 1200.15 993.11Z" stroke="black" stroke-width="0.998262"/>
</g>
<defs>
<filter id="filter0_f_2070_2103" x="605.304" y="-0.00595093" width="489.177" height="866.895" filterUnits="userSpaceOnUse" color-interpolation-filters="sRGB">
<feFlood flood-opacity="0" result="BackgroundImageFix"/>
<feBlend mode="normal" in="SourceGraphic" in2="BackgroundImageFix" result="shape"/>
<feGaussianBlur stdDeviation="29.848" result="effect1_foregroundBlur_2070_2103"/>
</filter>
<filter id="filter1_f_2070_2103" x="1027.3" y="227.087" width="373.998" height="744.312" filterUnits="userSpaceOnUse" color-interpolation-filters="sRGB">
<feFlood flood-opacity="0" result="BackgroundImageFix"/>
<feBlend mode="normal" in="SourceGraphic" in2="BackgroundImageFix" result="shape"/>
<feGaussianBlur stdDeviation="29.848" result="effect1_foregroundBlur_2070_2103"/>
</filter>
<filter id="filter2_f_2070_2103" x="363.499" y="809.346" width="610.642" height="1036.87" filterUnits="userSpaceOnUse" color-interpolation-filters="sRGB">
<feFlood flood-opacity="0" result="BackgroundImageFix"/>
<feBlend mode="normal" in="SourceGraphic" in2="BackgroundImageFix" result="shape"/>
<feGaussianBlur stdDeviation="29.848" result="effect1_foregroundBlur_2070_2103"/>
</filter>
<filter id="filter3_f_2070_2103" x="0.366417" y="217.839" width="610.642" height="1036.87" filterUnits="userSpaceOnUse" color-interpolation-filters="sRGB">
<feFlood flood-opacity="0" result="BackgroundImageFix"/>
<feBlend mode="normal" in="SourceGraphic" in2="BackgroundImageFix" result="shape"/>
<feGaussianBlur stdDeviation="29.848" result="effect1_foregroundBlur_2070_2103"/>
</filter>
<filter id="filter4_f_2070_2103" x="1028.41" y="655.42" width="373.998" height="744.312" filterUnits="userSpaceOnUse" color-interpolation-filters="sRGB">
<feFlood flood-opacity="0" result="BackgroundImageFix"/>
<feBlend mode="normal" in="SourceGraphic" in2="BackgroundImageFix" result="shape"/>
<feGaussianBlur stdDeviation="29.848" result="effect1_foregroundBlur_2070_2103"/>
</filter>
<linearGradient id="paint0_linear_2070_2103" x1="37.7891" y1="931.328" x2="1357.21" y2="931.328" gradientUnits="userSpaceOnUse">
<stop stop-color="#7D219C"/>
<stop offset="1" stop-color="#8D0044"/>
</linearGradient>
<linearGradient id="paint1_linear_2070_2103" x1="413.353" y1="0" x2="389.395" y2="16.5624" gradientUnits="userSpaceOnUse">
<stop stop-color="#940348"/>
<stop offset="1" stop-color="#ED68C3"/>
</linearGradient>
<linearGradient id="paint2_linear_2070_2103" x1="335.198" y1="0" x2="317.7" y2="14.0087" gradientUnits="userSpaceOnUse">
<stop stop-color="#8133A4"/>
<stop offset="1" stop-color="#ED68C3"/>
</linearGradient>
<radialGradient id="paint3_radial_2070_2103" cx="0" cy="0" r="1" gradientUnits="userSpaceOnUse" gradientTransform="translate(507.078 22.1146) rotate(109.809) scale(23.5055 212.767)">
<stop stop-color="#B53484"/>
<stop offset="1" stop-color="#B53484"/>
</radialGradient>
<radialGradient id="paint4_radial_2070_2103" cx="0" cy="0" r="1" gradientUnits="userSpaceOnUse" gradientTransform="translate(507.078 22.1146) rotate(109.809) scale(23.5055 212.767)">
<stop stop-color="#B53484"/>
<stop offset="1" stop-color="#B53484"/>
</radialGradient>
<linearGradient id="paint5_linear_2070_2103" x1="335.198" y1="0" x2="317.7" y2="14.0087" gradientUnits="userSpaceOnUse">
<stop stop-color="#8133A4"/>
<stop offset="1" stop-color="#ED68C3"/>
</linearGradient>
</defs>
</svg>
