<svg width="16" height="16" viewBox="0 0 16 16" fill="none" xmlns="http://www.w3.org/2000/svg">
<path d="M7.43131 1.86035C7.87557 1.48047 8.60313 1.48047 9.05383 1.86035L10.0711 2.73599C10.2643 2.90339 10.6248 3.0386 10.8824 3.0386H11.9769C12.6594 3.0386 13.2196 3.59876 13.2196 4.28125V5.37581C13.2196 5.62691 13.3548 5.99391 13.5222 6.18707L14.3978 7.20436C14.7777 7.64862 14.7777 8.37618 14.3978 8.82688L13.5222 9.84418C13.3548 10.0373 13.2196 10.3979 13.2196 10.6554V11.75C13.2196 12.4325 12.6594 12.9926 11.9769 12.9926H10.8824C10.6313 12.9926 10.2643 13.1278 10.0711 13.2952L9.05383 14.1709C8.60957 14.5508 7.88201 14.5508 7.43131 14.1709L6.41402 13.2952C6.22086 13.1278 5.8603 12.9926 5.60276 12.9926H4.48888C3.8064 12.9926 3.24624 12.4325 3.24624 11.75V10.649C3.24624 10.3979 3.11103 10.0373 2.95007 9.84418L2.08086 8.82044C1.70742 8.37618 1.70742 7.65506 2.08086 7.2108L2.95007 6.18707C3.11103 5.99391 3.24624 5.63335 3.24624 5.38224V4.27481C3.24624 3.59232 3.8064 3.03217 4.48888 3.03217H5.60276C5.85386 3.03217 6.22086 2.89696 6.41402 2.72955L7.43131 1.86035Z" fill="#DF8FBF"/>
<path d="M7.45739 10.0501C7.32861 10.0501 7.20628 9.99857 7.11614 9.90843L5.55801 8.3503C5.37129 8.16358 5.37129 7.85453 5.55801 7.66781C5.74473 7.48109 6.05378 7.48109 6.2405 7.66781L7.45739 8.8847L10.226 6.11611C10.4127 5.92939 10.7217 5.92939 10.9085 6.11611C11.0952 6.30283 11.0952 6.61188 10.9085 6.7986L7.79863 9.90843C7.70849 9.99857 7.58616 10.0501 7.45739 10.0501Z" fill="#1F1F1F"/>
</svg>
