<svg width="88" height="16" viewBox="0 0 88 16" fill="none" xmlns="http://www.w3.org/2000/svg">
<path d="M8.43342 0.617622L10.7542 5.25582C10.7732 5.29326 10.801 5.32569 10.8353 5.35041C10.8696 5.37513 10.9093 5.39143 10.9513 5.39796L16.1332 6.13998C16.1998 6.15272 16.2589 6.19018 16.2984 6.24462C16.3378 6.29906 16.3545 6.36635 16.3452 6.43262C16.3365 6.48887 16.3098 6.54089 16.2689 6.58101L12.5302 10.1908C12.4997 10.2198 12.4768 10.2557 12.4635 10.2954C12.4502 10.3351 12.4469 10.3774 12.4539 10.4187L13.342 15.5167C13.3531 15.5839 13.3372 15.6528 13.2976 15.7087C13.258 15.7645 13.1979 15.8029 13.13 15.8156C13.0727 15.8246 13.014 15.8151 12.9626 15.7884L8.32109 13.3826C8.28354 13.363 8.2417 13.3528 8.19922 13.3528C8.15675 13.3528 8.11491 13.363 8.07736 13.3826L3.43586 15.7884C3.39271 15.8111 3.34396 15.8214 3.29518 15.8181C3.2464 15.8148 3.19955 15.798 3.15998 15.7696C3.12041 15.7413 3.08972 15.7025 3.07142 15.6578C3.05312 15.6131 3.04794 15.5642 3.05648 15.5167L3.9424 10.4249C3.94987 10.3839 3.94702 10.3416 3.93409 10.3019C3.92115 10.2622 3.89854 10.2262 3.86822 10.1971L0.112629 6.58729C0.0880863 6.56338 0.068603 6.53489 0.0553038 6.5035C0.0420046 6.4721 0.0351562 6.43842 0.0351562 6.4044C0.0351562 6.37037 0.0420046 6.33668 0.0553038 6.30528C0.068603 6.27389 0.0880863 6.24542 0.112629 6.2215C0.153315 6.18116 0.206065 6.15479 0.263105 6.14626L5.45141 5.40213C5.49339 5.39649 5.53331 5.38078 5.56768 5.35637C5.60205 5.33195 5.62981 5.29957 5.64852 5.26209L7.96927 0.623886C7.98458 0.593428 8.00585 0.566266 8.03187 0.543972C8.05789 0.521677 8.08813 0.504691 8.12085 0.494C8.15357 0.483308 8.18812 0.479127 8.22249 0.481688C8.25686 0.48425 8.29037 0.493507 8.32109 0.508926C8.36908 0.532767 8.40834 0.570761 8.43342 0.617622Z" fill="#F3CC30"/>
<path d="M8.19866 1.69019L6.13224 5.64069C6.07845 5.74245 5.99961 5.82927 5.90297 5.89318C5.80632 5.95709 5.69496 5.99604 5.57908 6.00648L1.08594 6.41199L5.82917 6.62101C5.97611 6.62783 6.12144 6.58837 6.24413 6.50833C6.36681 6.42829 6.4605 6.31182 6.51162 6.17579L8.19866 1.69019Z" fill="#F7DB5E"/>
<path d="M3.15788 14.932L3.05403 15.5173C3.04641 15.5648 3.05226 15.6135 3.07092 15.658C3.08959 15.7025 3.12035 15.741 3.15981 15.7693C3.19927 15.7976 3.24591 15.8147 3.29456 15.8185C3.34321 15.8223 3.39199 15.8129 3.43552 15.7911L8.07914 13.3832C8.11669 13.3636 8.15853 13.3533 8.20101 13.3533C8.24349 13.3533 8.28532 13.3636 8.32287 13.3832L12.9538 15.7911C13.0155 15.8222 13.0871 15.8283 13.1532 15.808C13.2194 15.7877 13.2749 15.7426 13.3077 15.6824C13.334 15.6315 13.3429 15.5736 13.3331 15.5173L12.4557 10.4255C12.4483 10.3839 12.4514 10.3412 12.4647 10.3011C12.478 10.261 12.5011 10.2248 12.532 10.1956L16.2855 6.58577C16.31 6.56185 16.3295 6.53337 16.3428 6.50197C16.3561 6.47058 16.363 6.4369 16.363 6.40287C16.363 6.36885 16.3561 6.33517 16.3428 6.30377C16.3295 6.27237 16.31 6.24389 16.2855 6.21998C16.2448 6.17964 16.192 6.15326 16.135 6.14473L14.3971 5.896C11.591 10.8686 7.28648 13.4877 3.15788 14.932Z" fill="#EDBD31"/>
<path d="M26.1309 0.617945L28.4516 5.25615C28.4703 5.2938 28.4981 5.3264 28.5324 5.35115C28.5667 5.37591 28.6066 5.39208 28.6487 5.39828L33.837 6.1403C33.9058 6.15014 33.9678 6.18645 34.0096 6.24129C34.0513 6.29614 34.0692 6.36505 34.0595 6.43294C34.0509 6.48919 34.0242 6.54121 33.9833 6.58134L30.2277 10.1912C30.1973 10.2202 30.1747 10.2562 30.1618 10.296C30.1489 10.3357 30.146 10.3779 30.1535 10.419L31.0394 15.517C31.0479 15.5645 31.0428 15.6134 31.0245 15.6581C31.0062 15.7029 30.9755 15.7416 30.9359 15.7699C30.8963 15.7983 30.8495 15.8151 30.8007 15.8184C30.7519 15.8217 30.7032 15.8115 30.66 15.7888L26.0185 13.3829C25.981 13.3633 25.9391 13.3531 25.8967 13.3531C25.8542 13.3531 25.8123 13.3633 25.7748 13.3829L21.1333 15.7888C21.09 15.8112 21.0412 15.8212 20.9925 15.8178C20.9437 15.8144 20.8969 15.7977 20.8572 15.7694C20.8176 15.7412 20.7867 15.7026 20.7681 15.658C20.7495 15.6134 20.7438 15.5646 20.7518 15.517L21.6441 10.4253C21.6515 10.3842 21.6487 10.3419 21.6358 10.3022C21.6228 10.2625 21.6002 10.2265 21.5699 10.1974L17.8079 6.58134C17.7834 6.55743 17.7639 6.52895 17.7506 6.49756C17.7373 6.46616 17.7305 6.43247 17.7305 6.39844C17.7305 6.36442 17.7373 6.33074 17.7506 6.29934C17.7639 6.26795 17.7834 6.23946 17.8079 6.21555C17.8486 6.17521 17.9014 6.14883 17.9584 6.1403L23.1467 5.39619C23.1888 5.39073 23.2288 5.37508 23.2632 5.35064C23.2976 5.3262 23.3253 5.29374 23.3438 5.25615L25.6709 0.617945C25.6933 0.575416 25.727 0.539753 25.7685 0.514863C25.81 0.489973 25.8576 0.476807 25.9062 0.476807C25.9548 0.476807 26.0024 0.489973 26.0439 0.514863C26.0854 0.539753 26.1191 0.575416 26.1414 0.617945H26.1309Z" fill="#F3CC30"/>
<path d="M25.8958 1.69019L23.8272 5.64069C23.7736 5.74257 23.6948 5.82949 23.5981 5.89342C23.5014 5.95735 23.39 5.99623 23.2741 6.00648L18.7852 6.41199L23.5284 6.62101C23.6753 6.62783 23.8207 6.58837 23.9433 6.50833C24.066 6.42829 24.1597 6.31182 24.2108 6.17579L25.8958 1.69019Z" fill="#F7DB5E"/>
<path d="M20.8515 14.932L20.7498 15.5173C20.7416 15.5647 20.747 15.6135 20.7654 15.6581C20.7837 15.7027 20.8143 15.7414 20.8537 15.7698C20.8931 15.7982 20.9397 15.8153 20.9884 15.819C21.037 15.8228 21.0858 15.8131 21.1292 15.7911L25.7707 13.3832C25.8082 13.3636 25.8501 13.3533 25.8925 13.3533C25.935 13.3533 25.9769 13.3636 26.0144 13.3832L30.6559 15.7911C30.7176 15.8222 30.7892 15.8283 30.8554 15.808C30.9215 15.7877 30.977 15.7426 31.0098 15.6824C31.0372 15.6318 31.0462 15.5736 31.0353 15.5173L30.1494 10.4255C30.1425 10.384 30.1459 10.3414 30.1592 10.3014C30.1724 10.2614 30.1952 10.2251 30.2257 10.1956L33.9813 6.58577C34.0298 6.53693 34.057 6.47126 34.057 6.40287C34.057 6.33448 34.0298 6.26882 33.9813 6.21998C33.9406 6.17964 33.8878 6.15326 33.8308 6.14473L32.0929 5.896C29.2868 10.8686 24.9801 13.4877 20.8515 14.932Z" fill="#EDBD31"/>
<path d="M43.8271 0.617659L46.1584 5.25586C46.1774 5.2933 46.2052 5.32572 46.2395 5.35044C46.2738 5.37516 46.3136 5.39146 46.3555 5.39799L51.529 6.14002C51.5978 6.14985 51.6598 6.18616 51.7015 6.24101C51.7432 6.29585 51.7612 6.36477 51.7515 6.43265C51.7438 6.48919 51.7169 6.54149 51.6752 6.58105L47.926 10.1909C47.895 10.2195 47.8718 10.2554 47.8584 10.2952C47.8451 10.335 47.8421 10.3775 47.8497 10.4187L48.7356 15.5167C48.7441 15.5642 48.739 15.6131 48.7207 15.6579C48.7024 15.7026 48.6717 15.7413 48.6321 15.7697C48.5925 15.798 48.5457 15.8148 48.4969 15.8181C48.4481 15.8214 48.3994 15.8112 48.3562 15.7885L43.7147 13.3826C43.6772 13.3631 43.6353 13.3528 43.5929 13.3528C43.5504 13.3528 43.5086 13.3631 43.471 13.3826L38.8295 15.7885C38.7991 15.8044 38.7657 15.8143 38.7314 15.8175C38.6971 15.8207 38.6625 15.8171 38.6295 15.807C38.5966 15.7969 38.5661 15.7804 38.5396 15.7586C38.5132 15.7368 38.4914 15.71 38.4756 15.6798C38.4482 15.63 38.4392 15.5724 38.4501 15.5167L39.336 10.425C39.3431 10.3837 39.3398 10.3414 39.3265 10.3017C39.3132 10.262 39.2903 10.2261 39.2597 10.1971L35.5063 6.58105C35.4572 6.53247 35.4297 6.46671 35.4297 6.39816C35.4297 6.3296 35.4572 6.26384 35.5063 6.21526C35.547 6.17492 35.5997 6.14855 35.6568 6.14002L40.8472 5.3959C40.8891 5.39026 40.9291 5.37454 40.9634 5.35012C40.9978 5.32571 41.0256 5.29334 41.0443 5.25586L43.3756 0.617659C43.3976 0.575053 43.4311 0.539271 43.4725 0.514284C43.5138 0.489296 43.5613 0.476074 43.6098 0.476074C43.6583 0.476074 43.7058 0.489296 43.7472 0.514284C43.7885 0.539271 43.822 0.575053 43.844 0.617659H43.8271Z" fill="#F3CC30"/>
<path d="M43.5911 1.69043L41.5225 5.64094C41.4694 5.74278 41.391 5.82972 41.2947 5.89367C41.1983 5.95762 41.0872 5.99651 40.9715 6.00673L36.4805 6.41223L41.2258 6.62125C41.3725 6.62828 41.5177 6.58888 41.6401 6.50878C41.7625 6.42868 41.8557 6.31209 41.9061 6.17603L43.5911 1.69043Z" fill="#F7DB5E"/>
<path d="M38.5508 14.932L38.4491 15.5173C38.4374 15.5846 38.4531 15.6537 38.4928 15.7097C38.5324 15.7657 38.5929 15.8039 38.6611 15.8162C38.7181 15.8256 38.7768 15.8169 38.8285 15.7911L43.4763 13.3832C43.5139 13.3636 43.5557 13.3533 43.5982 13.3533C43.6407 13.3533 43.6825 13.3636 43.7201 13.3832L48.351 15.7911C48.4126 15.8228 48.4844 15.8291 48.5507 15.8088C48.617 15.7884 48.6725 15.743 48.7049 15.6824C48.7319 15.6317 48.7416 15.5738 48.7325 15.5173L47.8508 10.4255C47.8435 10.3841 47.8465 10.3416 47.8594 10.3016C47.8723 10.2616 47.8948 10.2252 47.925 10.1956L51.6806 6.58577C51.7051 6.56185 51.7246 6.53337 51.7379 6.50197C51.7512 6.47058 51.758 6.4369 51.758 6.40287C51.758 6.36885 51.7512 6.33517 51.7379 6.30377C51.7246 6.27237 51.7051 6.24389 51.6806 6.21998C51.6399 6.17964 51.5871 6.15326 51.5301 6.14473L49.7922 5.896C46.9861 10.8686 42.6794 13.4877 38.5508 14.932Z" fill="#EDBD31"/>
<path d="M61.5187 0.61811L63.85 5.25631C63.8691 5.29375 63.8969 5.32618 63.9311 5.3509C63.9654 5.37562 64.0052 5.39191 64.0471 5.39844L69.2376 6.14047C69.3061 6.15082 69.3678 6.18726 69.4094 6.24197C69.451 6.29668 69.4692 6.36531 69.4601 6.43311C69.4515 6.48936 69.4247 6.54138 69.3838 6.5815L65.6282 10.1913C65.5977 10.2203 65.5748 10.2562 65.5615 10.2959C65.5482 10.3356 65.5449 10.3779 65.5519 10.4191L66.4399 15.5172C66.4511 15.5844 66.4352 15.6533 66.3956 15.7092C66.356 15.765 66.2959 15.8034 66.228 15.8161C66.1707 15.8251 66.112 15.8155 66.0606 15.7889L61.4191 13.3831C61.3815 13.3635 61.3397 13.3533 61.2972 13.3533C61.2547 13.3533 61.2129 13.3635 61.1754 13.3831L56.5338 15.7889C56.4907 15.8116 56.442 15.8219 56.3932 15.8186C56.3444 15.8152 56.2975 15.7984 56.258 15.7701C56.2184 15.7418 56.1877 15.703 56.1694 15.6583C56.1511 15.6136 56.1459 15.5647 56.1545 15.5172L57.0361 10.4254C57.0436 10.3844 57.0408 10.3421 57.0278 10.3024C57.0149 10.2627 56.9923 10.2267 56.962 10.1976L53.2064 6.58778C53.1818 6.56387 53.1623 6.53538 53.149 6.50399C53.1357 6.47259 53.1289 6.43891 53.1289 6.40489C53.1289 6.37086 53.1357 6.33717 53.149 6.30577C53.1623 6.27438 53.1818 6.2459 53.2064 6.22199C53.2471 6.18165 53.2998 6.15528 53.3569 6.14675L58.5452 5.40262C58.5871 5.39698 58.6271 5.38127 58.6614 5.35685C58.6958 5.33243 58.7236 5.30005 58.7423 5.26257L61.0736 0.624374C61.0889 0.593916 61.1102 0.566754 61.1362 0.54446C61.1622 0.522165 61.1925 0.505179 61.2252 0.494488C61.2579 0.483797 61.2925 0.479615 61.3268 0.482177C61.3612 0.484738 61.3947 0.493995 61.4254 0.509414C61.4664 0.536178 61.4987 0.573882 61.5187 0.61811Z" fill="#F3CC30"/>
<path d="M61.2747 1.69043L59.2082 5.64094C59.1545 5.7427 59.0756 5.82952 58.979 5.89343C58.8823 5.95733 58.771 5.99629 58.6551 6.00673L54.1641 6.41223L58.9094 6.62125C59.0561 6.62828 59.2013 6.58888 59.3237 6.50878C59.4461 6.42868 59.5393 6.31209 59.5897 6.17603L61.2747 1.69043Z" fill="#F7DB5E"/>
<path d="M56.2444 14.9323L56.1405 15.5175C56.1288 15.5848 56.1445 15.654 56.1842 15.71C56.2238 15.7659 56.2843 15.8042 56.3525 15.8164C56.4096 15.826 56.4683 15.8172 56.5199 15.7913L61.1614 13.3834C61.1989 13.3638 61.2408 13.3536 61.2832 13.3536C61.3257 13.3536 61.3676 13.3638 61.4051 13.3834L66.0466 15.7913C66.1083 15.8225 66.1799 15.8285 66.2461 15.8082C66.3122 15.7879 66.3677 15.7428 66.4006 15.6827C66.4268 15.6317 66.4357 15.5738 66.426 15.5175L65.5422 10.4257C65.5349 10.3844 65.5379 10.3419 65.5508 10.3018C65.5637 10.2618 65.5862 10.2254 65.6164 10.1958L69.372 6.58601C69.3965 6.5621 69.416 6.53361 69.4293 6.50222C69.4426 6.47082 69.4494 6.43714 69.4494 6.40312C69.4494 6.36909 69.4426 6.33541 69.4293 6.30401C69.416 6.27262 69.3965 6.24413 69.372 6.22022C69.3313 6.17988 69.2785 6.15351 69.2215 6.14498L67.4836 5.89624C64.6775 10.8689 60.373 13.4879 56.2444 14.9323Z" fill="#EDBD31"/>
<path d="M80.6611 5.7019C80.7292 5.83766 80.8214 5.95859 80.9316 6.0603L81.0488 6.15601C81.1716 6.2445 81.3085 6.30995 81.4531 6.34937L81.6006 6.38062H81.6045L85.2881 6.90894L82.6309 9.47534C82.5204 9.58136 82.4303 9.70675 82.3652 9.84546L82.3086 9.98901C82.2457 10.1822 82.2317 10.3875 82.2666 10.5876L82.2656 10.5886L82.8975 14.2283L79.5674 12.5017C79.4333 12.4322 79.2884 12.3878 79.1396 12.3699L78.9893 12.3611C78.7882 12.3611 78.5892 12.4087 78.4102 12.5017L75.0732 14.2312L75.6992 10.6023L75.7002 10.6033C75.7279 10.4509 75.7264 10.2952 75.6973 10.1443L75.6592 9.99487L75.6025 9.85229C75.5374 9.71336 75.4476 9.58738 75.3369 9.4812H75.3359L72.668 6.91577L76.374 6.38452L76.373 6.38354C76.5203 6.36288 76.663 6.31755 76.7939 6.24683L76.9238 6.16577C77.0901 6.04763 77.2247 5.88975 77.3164 5.70581L77.3174 5.70679L78.9863 2.36987L80.6611 5.7019Z" stroke="#D6D6D6" stroke-width="1.98493"/>
<mask id="path-14-inside-1_2005_3241" fill="white">
<path d="M78.9835 1.69019L76.915 5.64069C76.8613 5.74257 76.7825 5.82949 76.6858 5.89342C76.5892 5.95735 76.4777 5.99623 76.3618 6.00648L71.875 6.41199L76.6182 6.62101C76.7652 6.62783 76.9105 6.58837 77.0332 6.50833C77.1559 6.42829 77.2496 6.31182 77.3007 6.17579L78.9835 1.69019Z"/>
</mask>
<path d="M78.9835 1.69019L80.8419 2.3874L77.225 0.76944L78.9835 1.69019ZM76.915 5.64069L78.6713 6.56543L78.6734 6.56144L76.915 5.64069ZM76.3618 6.00648L76.1869 4.02927L76.1831 4.02961L76.3618 6.00648ZM71.875 6.41199L71.6963 4.43512L71.7876 8.39499L71.875 6.41199ZM76.6182 6.62101L76.7103 4.63821L76.7056 4.63801L76.6182 6.62101ZM77.3007 6.17579L79.1587 6.87403L79.1591 6.873L77.3007 6.17579ZM78.9835 1.69019L77.225 0.76944L75.1565 4.71995L76.915 5.64069L78.6734 6.56144L80.7419 2.61093L78.9835 1.69019ZM76.915 5.64069L75.1586 4.71596C75.2616 4.52038 75.4112 4.35667 75.591 4.23775L76.6858 5.89342L77.7807 7.5491C78.1539 7.30232 78.4611 6.96477 78.6713 6.56543L76.915 5.64069ZM76.6858 5.89342L75.591 4.23775C75.7708 4.11887 75.9758 4.04795 76.1869 4.02927L76.3618 6.00648L76.5367 7.98369C76.9797 7.94451 77.4075 7.79584 77.7807 7.5491L76.6858 5.89342ZM76.3618 6.00648L76.1831 4.02961L71.6963 4.43512L71.875 6.41199L72.0537 8.38886L76.5404 7.98335L76.3618 6.00648ZM71.875 6.41199L71.7876 8.39499L76.5308 8.60401L76.6182 6.62101L76.7056 4.63801L71.9624 4.42898L71.875 6.41199ZM76.6182 6.62101L76.5262 8.6038C77.0873 8.62986 77.6446 8.47944 78.1177 8.17077L77.0332 6.50833L75.9486 4.84589C76.1764 4.6973 76.443 4.62581 76.7103 4.63822L76.6182 6.62101ZM77.0332 6.50833L78.1177 8.17077C78.5913 7.86182 78.9577 7.40895 79.1587 6.87403L77.3007 6.17579L75.4426 5.47755C75.5414 5.2147 75.7204 4.99477 75.9486 4.84589L77.0332 6.50833ZM77.3007 6.17579L79.1591 6.873L80.8419 2.3874L78.9835 1.69019L77.125 0.992974L75.4422 5.47858L77.3007 6.17579Z" fill="#D6D6D6" mask="url(#path-14-inside-1_2005_3241)"/>
<path d="M82.8887 14.23L80.2197 12.8423C80.9507 12.3231 81.6624 11.7462 82.3457 11.105L82.8887 14.23Z" stroke="#D6D6D6" stroke-width="1.98493"/>
</svg>
