<svg width="17" height="16" viewBox="0 0 17 16" fill="none" xmlns="http://www.w3.org/2000/svg">
<path d="M5.61241 13.8121C5.59294 13.8121 5.56697 13.8251 5.5475 13.8251C4.28814 13.2019 3.26249 12.1697 2.63281 10.9104C2.63281 10.8909 2.6458 10.8649 2.6458 10.8455C3.43776 11.0792 4.25569 11.2544 5.06712 11.3907C5.20994 12.2087 5.37872 13.0201 5.61241 13.8121Z" fill="#232323"/>
<path d="M14.2412 10.9169C13.5985 12.2087 12.5274 13.2538 11.2227 13.8835C11.4693 13.0591 11.6771 12.2281 11.8134 11.3907C12.6313 11.2544 13.4363 11.0792 14.2282 10.8455C14.2217 10.8714 14.2412 10.8974 14.2412 10.9169Z" fill="#232323"/>
<path d="M14.2931 5.24333C13.4752 4.99665 12.6508 4.79542 11.8134 4.6526C11.6771 3.8152 11.4758 2.98429 11.2227 2.17285C12.5664 2.81551 13.6505 3.89959 14.2931 5.24333Z" fill="#232323"/>
<path d="M5.60965 2.24408C5.37596 3.03605 5.20718 3.84099 5.07086 4.65892C4.23346 4.78875 3.40255 4.99648 2.57812 5.24316C3.2078 3.93837 4.25293 2.86727 5.54474 2.22461C5.56421 2.22461 5.59018 2.24408 5.60965 2.24408Z" fill="#232323"/>
<path d="M10.699 4.51597C9.19301 4.3472 7.674 4.3472 6.16797 4.51597C6.33026 3.62664 6.53798 2.7373 6.8301 1.88043C6.84308 1.82849 6.83659 1.78955 6.84308 1.73761C7.35591 1.61427 7.88172 1.53638 8.4335 1.53638C8.97879 1.53638 9.51109 1.61427 10.0174 1.73761C10.0239 1.78955 10.0239 1.82849 10.0369 1.88043C10.329 2.7438 10.5367 3.62664 10.699 4.51597Z" fill="#232323"/>
<path d="M4.92491 10.2935C4.02908 10.1312 3.14624 9.9235 2.28936 9.63138C2.23743 9.6184 2.19848 9.62489 2.14655 9.6184C2.02321 9.10557 1.94531 8.57976 1.94531 8.02798C1.94531 7.4827 2.02321 6.9504 2.14655 6.44406C2.19848 6.43757 2.23743 6.43757 2.28936 6.42458C3.15273 6.13896 4.02908 5.92474 4.92491 5.76245C4.76262 7.26848 4.76262 8.78749 4.92491 10.2935Z" fill="#232323"/>
<path d="M14.9288 8.02798C14.9288 8.57976 14.8509 9.10557 14.7276 9.6184C14.6756 9.62489 14.6367 9.6184 14.5848 9.63138C13.7214 9.91701 12.8386 10.1312 11.9492 10.2935C12.118 8.78749 12.118 7.26848 11.9492 5.76245C12.8386 5.92474 13.7279 6.13247 14.5848 6.42458C14.6367 6.43757 14.6756 6.44406 14.7276 6.44406C14.8509 6.95689 14.9288 7.4827 14.9288 8.02798Z" fill="#232323"/>
<path d="M10.699 11.54C10.5367 12.4359 10.329 13.3187 10.0369 14.1756C10.0239 14.2275 10.0239 14.2665 10.0174 14.3184C9.51109 14.4417 8.97879 14.5196 8.4335 14.5196C7.88172 14.5196 7.35591 14.4417 6.84308 14.3184C6.83659 14.2665 6.84308 14.2275 6.8301 14.1756C6.54448 13.3122 6.33026 12.4359 6.16797 11.54C6.92098 11.6244 7.674 11.6829 8.4335 11.6829C9.19301 11.6829 9.95251 11.6244 10.699 11.54Z" fill="#232323"/>
<path d="M10.8794 10.4712C9.25582 10.676 7.61706 10.676 5.99348 10.4712C5.78863 8.84762 5.78863 7.20886 5.99348 5.58527C7.61706 5.38043 9.25582 5.38043 10.8794 5.58527C11.0843 7.20886 11.0843 8.84762 10.8794 10.4712Z" fill="#232323"/>
</svg>
