<svg width="20" height="21" viewBox="0 0 20 21" fill="none" xmlns="http://www.w3.org/2000/svg">
<path d="M14.6147 12.4027C14.4026 12.6067 14.3047 12.9005 14.3536 13.1942L15.0717 17.2089C15.1288 17.5434 14.9819 17.8862 14.7045 18.0901C14.4189 18.2941 14.0517 18.3186 13.7498 18.1554L10.135 16.2705C10.0044 16.1971 9.86569 16.1644 9.72698 16.1563H9.4985C9.4169 16.1644 9.34346 16.1889 9.27818 16.2297L5.66337 18.1228C5.48386 18.2125 5.27986 18.237 5.08402 18.2125C4.59443 18.1146 4.2762 17.6577 4.3578 17.1681L5.08402 13.1534C5.12482 12.8605 5.03506 12.5578 4.82291 12.3538L1.87639 9.49783C1.62343 9.25303 1.54183 8.894 1.65607 8.57577C1.76215 8.24937 2.04448 8.01274 2.37414 7.96378L6.42958 7.36811C6.7315 7.33547 7.00893 7.14779 7.14765 6.87117L8.9265 3.2074C8.96729 3.1258 9.01625 3.04421 9.08969 2.98709L9.16313 2.92997C9.19577 2.88101 9.24473 2.84837 9.29369 2.82389L9.37529 2.79125L9.514 2.73413H9.85672C10.1586 2.75861 10.4279 2.94629 10.5748 3.22372L12.3781 6.87117C12.5087 7.13229 12.7616 7.31996 13.0554 7.36811L17.1108 7.95562C17.4535 8.00458 17.7391 8.24121 17.8534 8.56761C17.9594 8.894 17.8615 9.25303 17.6167 9.48151L14.565 12.3701L14.6147 12.4027Z" fill="#E8BA63"/>
</svg>
